<mxfile host="app.diagrams.net" modified="2020-11-21T03:41:48.781Z" agent="5.0 (Windows NT 10.0; Win64; x64) AppleWebKit/537.36 (KHTML, like Gecko) Chrome/86.0.4240.198 Safari/537.36" etag="Wcle4od63aPMIvc8bp_D" version="13.10.0" type="github">
  <diagram id="KeuMIbc_HUdOpYRBmk4B" name="Page-1">
    <mxGraphModel dx="1422" dy="762" grid="1" gridSize="10" guides="1" tooltips="1" connect="1" arrows="1" fold="1" page="1" pageScale="1" pageWidth="827" pageHeight="1169" math="0" shadow="0">
      <root>
        <mxCell id="0" />
        <mxCell id="1" parent="0" />
        <mxCell id="ZfPNR8AxanrNATvaTHrl-4" style="edgeStyle=orthogonalEdgeStyle;rounded=1;orthogonalLoop=1;jettySize=auto;html=1;" edge="1" parent="1" source="ZfPNR8AxanrNATvaTHrl-1" target="ZfPNR8AxanrNATvaTHrl-2">
          <mxGeometry relative="1" as="geometry" />
        </mxCell>
        <mxCell id="ZfPNR8AxanrNATvaTHrl-5" style="edgeStyle=orthogonalEdgeStyle;rounded=1;orthogonalLoop=1;jettySize=auto;html=1;exitX=0.5;exitY=1;exitDx=0;exitDy=0;" edge="1" parent="1" source="ZfPNR8AxanrNATvaTHrl-1" target="ZfPNR8AxanrNATvaTHrl-3">
          <mxGeometry relative="1" as="geometry" />
        </mxCell>
        <mxCell id="ZfPNR8AxanrNATvaTHrl-1" value="DigitalSell" style="rounded=0;whiteSpace=wrap;html=1;fillColor=#d5e8d4;strokeColor=#82b366;" vertex="1" parent="1">
          <mxGeometry x="311" y="125" width="196" height="80" as="geometry" />
        </mxCell>
        <mxCell id="ZfPNR8AxanrNATvaTHrl-2" value="DigitalSellReal&lt;br&gt;&lt;br&gt;真实对象" style="rounded=0;whiteSpace=wrap;html=1;fillColor=#dae8fc;strokeColor=#6c8ebf;" vertex="1" parent="1">
          <mxGeometry x="115" y="285" width="196" height="80" as="geometry" />
        </mxCell>
        <mxCell id="ZfPNR8AxanrNATvaTHrl-3" value="DigitalSellProxy&lt;br&gt;&lt;br&gt;代理对象，在真实对象的方法上做扩展" style="rounded=0;whiteSpace=wrap;html=1;fillColor=#dae8fc;strokeColor=#6c8ebf;" vertex="1" parent="1">
          <mxGeometry x="507" y="285" width="196" height="80" as="geometry" />
        </mxCell>
        <mxCell id="ZfPNR8AxanrNATvaTHrl-6" value="&lt;font style=&quot;font-size: 18px&quot;&gt;代理模式&lt;/font&gt;" style="text;html=1;strokeColor=none;fillColor=none;align=left;verticalAlign=middle;whiteSpace=wrap;rounded=0;" vertex="1" parent="1">
          <mxGeometry x="115" y="30" width="130" height="50" as="geometry" />
        </mxCell>
      </root>
    </mxGraphModel>
  </diagram>
</mxfile>
